<?xml version="1.0" encoding="UTF-8" standalone="no"?>
<!-- Uploaded to: SVG Repo, www.svgrepo.com, Generator: SVG Repo Mixer Tools -->

<svg
   width="800"
   height="800"
   viewBox="0 -3.5 256 256"
   version="1.1"
   preserveAspectRatio="xMidYMid"
   id="svg3"
   xmlns="http://www.w3.org/2000/svg"
   xmlns:svg="http://www.w3.org/2000/svg">
  <defs
     id="defs3" />
  <g
     id="g3"
     transform="rotate(180,128.24774,124.53161)">
    <path
       d="m 82.085161,244.93419 c -5.945806,0 -11.56129,-2.64258 -15.36,-7.43226 L 8.9187097,165.65677 C 5.12,160.8671 3.6335484,154.75613 5.12,148.81032 L 25.765161,59.127742 C 27.086452,53.181936 31.050323,48.392258 36.500645,45.749677 L 120.07226,5.7806452 c 2.64258,-1.3212904 5.61548,-1.9819355 8.58838,-1.9819355 2.97291,0 5.94581,0.6606451 8.58839,1.9819355 l 83.57162,39.8038708 c 5.45032,2.642581 9.41419,7.432258 10.73548,13.378065 l 20.64516,89.682579 c 1.32129,5.94581 0,12.05677 -3.79871,16.84645 l -57.80645,71.84516 c -3.79871,4.62452 -9.4142,7.43226 -15.36,7.43226 z"
       fill="#326de6"
       id="path1"
       style="display:inline" />
    <path
       d="m 128.49548,7.9277419 c 2.31226,0 4.62452,0.4954839 6.77162,1.4864517 l 83.57161,39.8038704 c 4.29419,2.147097 7.59742,6.110968 8.58839,10.735484 l 20.64516,89.682582 c 1.15613,4.78968 0,9.74451 -3.13807,13.54322 l -57.80645,71.84517 c -2.9729,3.79871 -7.59742,5.9458 -12.3871,5.9458 H 82.085161 c -4.789677,0 -9.414193,-2.14709 -12.387097,-5.9458 L 11.891613,163.17935 C 8.9187097,159.38064 7.7625807,154.42581 8.7535484,149.63613 L 29.39871,59.953548 C 30.554839,55.163871 33.692903,51.2 37.987097,49.218064 L 121.55871,9.2490323 c 2.1471,-0.8258065 4.62452,-1.3212904 6.93677,-1.3212904 z m 0,-7.76258061 v 0 c -3.46838,0 -6.93677,0.82580645 -10.24,2.31225811 L 34.683871,42.446452 C 28.077419,45.584516 23.452903,51.365161 21.80129,58.467097 L 1.156129,148.14968 c -1.65161287,7.10193 0,14.36903 4.6245162,20.14967 l 57.8064518,71.84517 c 4.459355,5.61548 11.230968,8.75354 18.332903,8.75354 h 92.65548 c 7.10194,0 13.87355,-3.13806 18.33291,-8.75354 l 57.80645,-71.84517 c 4.62451,-5.61548 6.27613,-13.04774 4.62451,-20.14967 L 234.69419,58.467097 C 233.04258,51.365161 228.41807,45.584516 221.81161,42.446452 L 138.57032,2.4774194 C 135.43226,0.99096774 131.96387,0.16516129 128.49548,0.16516129 Z"
       fill="#ffffff"
       id="path2"
       style="fill:#326de6;fill-opacity:1" />
    <path
       d="m 212.80649,145.81079 c 0,0 -10.04494,-5.60437 -20.06326,-8.39658 0.99096,-7.59742 0.66064,-15.52516 -1.15613,-23.28774 -1.81678,-7.76258 -9.24904,-21.636126 -9.24904,-21.636126 l 10.76632,-8.975033 21.74981,2.540194 -23.21942,-11.273026 -16.06832,8.954316 c 0,0 -4.45935,-4.294193 -6.77161,-6.276129 -9.90968,-7.762581 -21.96645,-12.552258 -34.51871,-13.708387 -6.34474,-0.431508 -6.34345,-0.413376 -11.23097,-0.165161 -2.9729,0.330322 -5.9458,0.660645 -8.91871,1.32129 C 101.40903,67.71615 90.178065,74.15744 81.424516,83.406473 79.104266,81.753543 65.73804,74.78242 65.73804,74.78242 L 42.467,86.05538 64.435,83.51522 c 0,0 8.288524,6.445908 10.548226,8.479639 -0.330323,0.495484 -0.660645,0.825806 -0.825807,1.32129 -8.258064,13.047741 -11.396129,28.407741 -9.249032,43.602581 -3.375547,1.00677 -20.144107,5.33695 -20.144107,5.33695 l -23.43808,23.75458 12.75904,3.89216 16.16192,-20.05306 c 0,0 14.046964,-1.58831 17.138646,-2.02999 3.963871,12.22194 11.561291,23.12258 21.636129,31.05033 2.312258,1.81677 4.624517,3.30322 7.101936,4.78967 -2.878695,6.18617 -8.258064,21.79228 -8.258064,21.79228 l 4.736045,27.32606 9.443708,-7.43463 -4.785209,-19.05664 c 0,0 5.541419,-11.95696 8.938359,-17.67223 7.2671,2.80774 15.19484,4.2942 23.12258,4.2942 4.78968,0 9.74452,-0.49549 14.36903,-1.65162 2.97291,-0.66064 8.58839,-2.47742 8.58839,-2.47742 l 8.98031,18.85335 c 0,0 -3.91215,14.25699 -4.7135,17.71027 l 9.15691,8.05607 5.38475,-26.42778 c 0,0 -3.6887,-8.75541 -8.89879,-23.14674 8.75354,-5.12 16.1858,-12.3871 21.80129,-21.30581 2.9729,-4.62452 5.28516,-9.74452 6.93677,-14.86452 6.97928,1.08068 17.29336,3.57222 17.29336,3.57222 l 15.7451,18.67593 12.09468,-3.89203 z m -77.04391,-11.3695 -7.2671,3.46839 -7.26709,-3.46839 -1.81678,-7.76258 4.95484,-6.27613 h 8.0929 l 4.95484,6.27613 z m 43.1071,-17.17677 c 1.32129,5.61548 1.65161,11.23096 1.15613,16.68129 l -25.26968,-7.2671 c -2.31226,-0.66064 -3.63355,-2.9729 -3.13807,-5.28516 0.16517,-0.66065 0.49549,-1.32129 0.99097,-1.81678 l 19.98452,-18.00258 c 2.80774,4.62452 4.95484,9.90968 6.27613,15.69033 z M 164.66581,91.664516 143.02968,107.02452 c -1.81678,1.15612 -4.2942,0.8258 -5.78065,-0.99097 -0.49548,-0.49548 -0.66064,-1.15613 -0.8258,-1.81678 l -1.48646,-26.921286 c 11.39613,1.32129 21.80129,6.44129 29.72904,14.369032 z M 116.76903,78.12129 c 1.81678,-0.330322 3.46839,-0.660645 5.28516,-0.990967 l -1.48645,26.425807 c -0.16516,2.31226 -1.98193,4.29419 -4.45935,4.29419 -0.66065,0 -1.48646,-0.16516 -1.98194,-0.49548 L 92.16,91.664516 c 6.771613,-6.771613 15.19484,-11.396129 24.60903,-13.543226 z m -32.536772,23.4529 19.654192,17.5071 c 1.81678,1.48645 1.98194,4.29419 0.49549,6.11097 -0.49549,0.66064 -1.15613,1.15613 -1.98194,1.32129 l -25.6,7.43226 c -0.990968,-11.23097 1.486452,-22.6271 7.432258,-32.37162 z m -4.459355,44.75871 26.260647,-4.45935 c 2.14709,-0.16516 4.12903,1.32129 4.62451,3.46838 0.16517,0.99097 0.16517,1.81678 -0.16516,2.64259 v 0 l -10.07483,24.27871 C 91.169032,166.31742 83.736774,157.23355 79.772903,146.3329 Z M 140.05677,179.2 c -3.79871,0.82581 -7.59742,1.32129 -11.56129,1.32129 -5.78064,0 -11.39612,-0.99097 -16.68129,-2.64258 l 13.04775,-23.61807 c 1.32129,-1.48645 3.46838,-2.14709 5.28516,-1.15612 0.8258,0.49548 1.48645,1.15612 1.98193,1.81677 v 0 l 12.71742,22.95742 c -1.48645,0.49548 -3.13806,0.82581 -4.78968,1.32129 z m 32.20646,-22.95742 c -4.12904,6.60645 -9.57936,11.89161 -15.85549,16.02065 l -10.40516,-24.93936 c -0.49548,-1.98194 0.33032,-4.12903 2.31226,-5.12 0.66064,-0.33032 1.48645,-0.49548 2.31226,-0.49548 l 26.4258,4.45935 c -0.99097,3.63355 -2.64258,6.93678 -4.78967,10.07484 z"
       fill="#ffffff"
       id="path3"
       style="display:inline;fill:#000000" />
    <path
       d="m 134.27613,63.752279 c -1.57799,-2.609365 -1.39223,-15.617383 4.03831,-8.790726 0.22264,0.279877 0.52118,1.482832 0.52118,1.482832 0.77042,-3.28041 -0.0926,-5.806444 -2.26019,-6.523882 -2.28654,-0.756816 -2.21568,-0.113988 -2.21568,-0.113988 0,0 -0.11261,-3.745828 0.13405,-7.217011 0.39648,-5.579543 -0.96653,-10.535617 -4.73163,-16.928246 -0.69963,-1.187874 -0.86083,-2.852936 -0.45979,-3.889745 1.00209,-2.590691 4.61914,0.395609 4.61914,0.395609 0,0 -1.00911,-4.056003 -3.92723,-5.056657 -2.78727,-0.955785 -3.64436,-0.0237 -5.75375,1.655994 -1.02299,-1.683996 -1.1859,-2.763382 -1.15949,-5.150043 0.0157,-1.420426 1.71313,-2.976141 1.71313,-2.976141 -4.77673,1.57084 -6.58914,10.352532 -6.60434,14.652292 -0.0168,4.757693 3.25358,8.83728 4.58484,11.398953 0.99142,1.907737 2.89509,5.664058 2.89509,5.664058 0,0 -1.95486,-1.194164 -3.89053,-0.830208 -6.7927,1.277207 -0.6265,6.919286 -0.6265,6.919286 0,0 -1.84473,-6.031761 3.36587,-2.838185 3.1493,1.930203 -1.44148,17.565005 -1.47345,17.980647 3.01428,1.908043 8.10843,1.758152 11.23097,0.165161 z"
       fill="#ffffff"
       id="path4"
       style="display:inline;fill:#c20000;fill-opacity:1" />
  </g>
</svg>
